<svg width="21" height="20" viewBox="0 0 21 20" fill="none" xmlns="http://www.w3.org/2000/svg">
<path d="M1.70595 6.732L1.14395 7.04C0.989571 7.1243 0.854893 7.24048 0.748859 7.38082C0.642826 7.52117 0.567864 7.68246 0.528951 7.854C0.451951 8.199 0.528951 8.559 0.739951 8.845L1.12195 9.352C1.27502 9.55915 1.35761 9.80993 1.35761 10.0675C1.35761 10.3251 1.27502 10.5758 1.12195 10.783L0.739951 11.311C0.312951 11.906 0.515951 12.764 1.16695 13.094L1.72895 13.403C2.19995 13.645 2.46995 14.173 2.37995 14.679L2.26795 15.296C2.20495 15.646 2.29995 16.004 2.52795 16.279C2.75795 16.553 3.09595 16.717 3.45795 16.727L4.10795 16.749C4.64795 16.771 5.11995 17.124 5.25395 17.63L5.43395 18.247C5.63695 18.95 6.44595 19.325 7.14095 19.039L7.74795 18.797C7.99062 18.6966 8.25807 18.6723 8.51487 18.7273C8.77167 18.7823 9.00569 18.914 9.18595 19.105L9.61195 19.59C9.85295 19.855 10.199 20.004 10.561 20C10.922 19.996 11.264 19.838 11.499 19.568L11.926 19.083C12.0997 18.8901 12.3283 18.755 12.5811 18.696C12.834 18.637 13.0988 18.6569 13.34 18.753L13.947 18.995C14.279 19.133 14.656 19.122 14.979 18.965C15.302 18.809 15.54 18.523 15.631 18.18L15.81 17.564C15.8814 17.3119 16.0307 17.0888 16.2365 16.9267C16.4423 16.7645 16.6941 16.6715 16.9559 16.661L17.608 16.617C17.966 16.593 18.298 16.422 18.52 16.145C18.743 15.868 18.835 15.511 18.774 15.165L18.6639 14.548C18.6189 14.293 18.6554 14.0302 18.7681 13.7971C18.8808 13.5639 19.0641 13.3721 19.292 13.249L19.853 12.941C20.0075 12.8568 20.1424 12.7407 20.2486 12.6003C20.3548 12.46 20.4299 12.2986 20.469 12.127C20.5459 11.782 20.469 11.421 20.2579 11.135L19.8759 10.628C19.7231 10.4209 19.6407 10.1704 19.6407 9.913C19.6407 9.65565 19.7231 9.40506 19.8759 9.198L20.2579 8.67C20.684 8.075 20.4819 7.217 19.8309 6.885L19.2689 6.577C19.0398 6.46012 18.8534 6.27378 18.7365 6.0446C18.6195 5.81543 18.5781 5.55516 18.618 5.301L18.7299 4.684C18.761 4.5111 18.7538 4.3335 18.7089 4.16368C18.664 3.99386 18.5824 3.83593 18.4699 3.701C18.3556 3.5646 18.2135 3.45411 18.0532 3.37687C17.8928 3.29962 17.7179 3.2574 17.54 3.253L16.889 3.231C16.6292 3.2252 16.378 3.13676 16.172 2.97852C15.9659 2.82027 15.8156 2.60046 15.743 2.351L15.563 1.734C15.361 1.029 14.553 0.656 13.857 0.941L13.183 1.184C12.9404 1.28418 12.6732 1.30838 12.4166 1.25338C12.16 1.19838 11.9261 1.06679 11.746 0.876L11.319 0.391C11.198 0.263701 11.0516 0.163212 10.8893 0.0960326C10.7271 0.0288527 10.5525 -0.00352274 10.377 0.000999889C10.2013 0.00457748 10.0283 0.0450657 9.86929 0.119835C9.71028 0.194605 9.56877 0.301984 9.45395 0.435L9.02795 0.919C8.85417 1.11214 8.62533 1.24733 8.3723 1.30634C8.11928 1.36535 7.85424 1.34534 7.61295 1.249L7.00695 1.008C6.84237 0.939944 6.66527 0.907436 6.48725 0.912606C6.30922 0.917776 6.1343 0.960507 5.97395 1.038C5.81523 1.11402 5.6748 1.22343 5.56227 1.35874C5.44974 1.49406 5.36776 1.65208 5.32195 1.822L5.14195 2.439C5.07042 2.69059 4.92134 2.91321 4.71594 3.07516C4.51054 3.23711 4.25929 3.33014 3.99795 3.341L3.34595 3.384C2.98595 3.408 2.65395 3.58 2.43195 3.857C2.32211 3.99315 2.24263 4.15119 2.19882 4.32055C2.15502 4.48991 2.1479 4.66667 2.17795 4.839L2.28995 5.455C2.42395 5.939 2.17795 6.468 1.70595 6.732Z" fill="#1786FF"/>
<path d="M15.402 6.38C15.2789 6.25674 15.1322 6.15955 14.9707 6.09426C14.8092 6.02897 14.6362 5.99691 14.462 6C14.122 6 13.78 6.126 13.546 6.38L9.362 10.314L7.74 8.914C7.62008 8.79289 7.47722 8.6969 7.31977 8.63165C7.16232 8.5664 6.99343 8.53321 6.823 8.534C6.483 8.534 6.141 8.66 5.884 8.914C5.629 9.166 5.5 9.484 5.5 9.822C5.5 10.159 5.629 10.498 5.884 10.73L8.446 13.674C8.701 13.926 9.021 14.053 9.362 14.053C9.704 14.053 10.046 13.926 10.28 13.673L15.38 8.217C15.636 7.964 15.786 7.625 15.786 7.287C15.786 6.951 15.658 6.612 15.401 6.379H15.402V6.38Z" fill="white" stroke="#1786FF" stroke-linecap="round"/>
</svg>
