<svg width="28" height="28" viewBox="0 0 28 28" fill="none" xmlns="http://www.w3.org/2000/svg">
<g clip-path="url(#clip0_1_14295)">
<path d="M13.5474 18.8335C13.5474 15.5423 16.6122 12.7517 20.5124 12.7517C21.4177 12.7517 22.323 12.9663 23.1595 13.2533C23.1595 8.53066 18.4929 4.66666 12.8509 4.66666C7.07004 4.66666 2.33337 8.67299 2.33337 13.4668C2.33337 16.5433 4.28404 19.4052 7.21004 20.8367V24.0567C7.21004 24.4148 7.48771 24.6283 7.90537 24.4148L12.0844 22.2682H13.1297C13.6174 22.2682 14.105 22.2682 14.5227 22.1247C13.8262 21.1225 13.5474 19.978 13.5474 18.8335ZM20.5124 14.5402C17.5875 14.5402 15.2192 16.401 15.2192 18.8335C15.2192 21.266 17.5875 23.2692 20.4424 23.2692H20.7912L21.4877 23.5562L22.6019 24.2713C22.9507 24.2713 23.2984 24.2713 23.2984 23.842V22.554C24.6914 21.8388 25.6667 20.4073 25.6667 18.8335C25.6667 16.401 23.3684 14.5402 20.4424 14.5402H20.5124Z" fill="#7C8591"/>
</g>
<defs>
<clipPath id="clip0_1_14295">
<rect width="28" height="28" fill="white"/>
</clipPath>
</defs>
</svg>
