<svg width="13" height="13" viewBox="0 0 13 13" fill="none" xmlns="http://www.w3.org/2000/svg">
<path d="M9.12341 6.63002L12.3021 9.76869C13.0061 10.42 13.0061 11.396 12.3021 12.1014C11.7601 12.806 10.6767 12.806 10.0267 12.1014L6.83008 8.97669L3.68808 12.0467C3.03808 12.752 2.06274 12.752 1.35808 12.0467C0.654078 11.5047 0.654078 10.42 1.35808 9.76869L4.47675 6.63002L1.41274 3.47735C0.654078 2.82669 0.654078 1.85069 1.41274 1.19935C1.53366 1.02376 1.69544 0.88019 1.88416 0.781008C2.07288 0.681825 2.28288 0.630002 2.49608 0.630002C2.70927 0.630002 2.91928 0.681825 3.108 0.781008C3.29672 0.88019 3.4585 1.02376 3.57941 1.19935L6.83008 4.24402L9.97208 1.19935C10.6221 0.440019 11.5974 0.440019 12.2474 1.19935C12.9521 1.74202 12.9521 2.82602 12.2474 3.47735L9.12341 6.63002Z" fill="#7C8591"/>
</svg>
