<svg xmlns="http://www.w3.org/2000/svg" width="71" height="70" fill="none"><rect width="59" height="59" x="5.5" y="3.5" stroke="#FF4458" rx="29.5"/><g filter="url(#a)"><rect width="58" height="58" x="6" y="4" fill="#fff" fill-opacity=".01" rx="29" shape-rendering="crispEdges"/><g clip-path="url(#b)"><path fill="#F3485B" d="m39.157 33 5.761 5.689c1.276 1.18 1.276 2.95 0 4.228-.982 1.277-2.946 1.277-4.124 0L35 37.253l-5.695 5.565c-1.178 1.278-2.946 1.278-4.223 0-1.276-.983-1.276-2.949 0-4.13L30.735 33l-5.554-5.714c-1.375-1.18-1.375-2.949 0-4.13a2.384 2.384 0 0 1 3.927 0L35 28.677l5.695-5.52c1.178-1.375 2.946-1.375 4.124 0 1.277.985 1.277 2.95 0 4.13z"/></g></g><defs><clipPath id="b"><path fill="#fff" d="M20.5 18.5h29v29h-29z"/></clipPath><filter id="a" width="71" height="70" x="0" y="0" color-interpolation-filters="sRGB" filterUnits="userSpaceOnUse"><feFlood flood-opacity="0" result="BackgroundImageFix"/><feColorMatrix in="SourceAlpha" result="hardAlpha" values="0 0 0 0 0 0 0 0 0 0 0 0 0 0 0 0 0 0 127 0"/><feOffset dy="2"/><feGaussianBlur stdDeviation="3"/><feComposite in2="hardAlpha" operator="out"/><feColorMatrix values="0 0 0 0 0.396078 0 0 0 0 0.431373 0 0 0 0 0.482353 0 0 0 0.12 0"/><feBlend in2="BackgroundImageFix" result="effect1_dropShadow_1_14240"/><feBlend in="SourceGraphic" in2="effect1_dropShadow_1_14240" result="shape"/></filter></defs></svg>