<svg xmlns="http://www.w3.org/2000/svg" width="59" height="58" fill="none"><rect width="47" height="47" x="5.5" y="3.5" stroke="#CD7105" rx="23.5"/><g filter="url(#a)"><rect width="46" height="46" x="6" y="4" fill="#fff" fill-opacity=".01" rx="23" shape-rendering="crispEdges"/><g clip-path="url(#b)"><path fill="#C8720B" d="M29.137 18.489v-1.486c0-1.398-.874-1.923-2.098-1.136l-.699.35-4.194 2.883-.524.35c-1.224.873-1.224 2.01 0 2.621l.436.437c1.136.874 3.06 2.098 4.195 2.797l.611.35c1.05.874 2.01.262 2.01-1.05v-1.922a5.895 5.895 0 0 1 5.943 5.942c0 3.321-2.622 5.856-5.942 5.856-3.496 0-6.118-2.622-6.118-5.943 0-1.05-.874-1.922-2.01-1.922-1.223 0-2.097.874-2.097 1.922 0 5.506 4.544 9.962 10.137 9.962 5.505 0 10.049-4.37 10.049-9.962.087-5.418-4.456-9.787-9.961-9.787z"/></g></g><defs><clipPath id="b"><path fill="#fff" d="M15.2 13.2h27.6v27.6H15.2z"/></clipPath><filter id="a" width="59" height="58" x="0" y="0" color-interpolation-filters="sRGB" filterUnits="userSpaceOnUse"><feFlood flood-opacity="0" result="BackgroundImageFix"/><feColorMatrix in="SourceAlpha" result="hardAlpha" values="0 0 0 0 0 0 0 0 0 0 0 0 0 0 0 0 0 0 127 0"/><feOffset dy="2"/><feGaussianBlur stdDeviation="3"/><feComposite in2="hardAlpha" operator="out"/><feColorMatrix values="0 0 0 0 0.396078 0 0 0 0 0.431373 0 0 0 0 0.482353 0 0 0 0.12 0"/><feBlend in2="BackgroundImageFix" result="effect1_dropShadow_1_14232"/><feBlend in="SourceGraphic" in2="effect1_dropShadow_1_14232" result="shape"/></filter></defs></svg>