<svg xmlns="http://www.w3.org/2000/svg" width="58" height="58" fill="none"><circle cx="29" cy="29" r="28" stroke="#BA52F5" stroke-width="2"/><g filter="url(#a)"><rect width="46" height="46" x="6" y="4" fill="#fff" fill-opacity=".01" rx="23" shape-rendering="crispEdges"/><g clip-path="url(#b)"><path fill="#B555EE" d="M33.576 29.32c.732-.733.586-1.465-.221-1.98l-1.466-.88c-.734-.44-1.32-1.466-1.1-2.419l1.834-7.701c.22-.88-.148-1.1-.88-.513l-9.167 8.8c-.734.734-.586 1.467.219 1.98l1.467.88c.734.44 1.32 1.467 1.1 2.494l-1.906 7.627c-.22.953.22 1.173.88.513z"/></g></g><defs><clipPath id="b"><path fill="#fff" d="M15.2 13.2h27.6v27.6H15.2z"/></clipPath><filter id="a" width="58" height="58" x="0" y="0" color-interpolation-filters="sRGB" filterUnits="userSpaceOnUse"><feFlood flood-opacity="0" result="BackgroundImageFix"/><feColorMatrix in="SourceAlpha" result="hardAlpha" values="0 0 0 0 0 0 0 0 0 0 0 0 0 0 0 0 0 0 127 0"/><feOffset dy="2"/><feGaussianBlur stdDeviation="3"/><feComposite in2="hardAlpha" operator="out"/><feColorMatrix values="0 0 0 0 0.396078 0 0 0 0 0.431373 0 0 0 0 0.482353 0 0 0 0.12 0"/><feBlend in2="BackgroundImageFix" result="effect1_dropShadow_1_14269"/><feBlend in="SourceGraphic" in2="effect1_dropShadow_1_14269" result="shape"/></filter></defs></svg>