<svg xmlns="http://www.w3.org/2000/svg" width="59" height="58" fill="none"><rect width="47" height="47" x="5.5" y="3.5" stroke="#1786FF" rx="23.5"/><g filter="url(#a)"><rect width="46" height="46" x="6" y="4" fill="#fff" fill-opacity=".01" rx="23" shape-rendering="crispEdges"/><g clip-path="url(#b)"><path fill="#1B86F9" d="m39.419 23.619-6.29-.759c-.173 0-.449-.287-.541-.471l-2.691-6.038c-.54-1.138-1.345-1.138-1.794 0L25.4 22.389c0 .184-.264.46-.54.46l-6.29.759c-1.162 0-1.438.954-.53 1.897l4.67 4.336c.172.183.264.575.172.758L21.64 37.2c-.184 1.127.46 1.703 1.53.944l5.393-3.209h.897l5.393 3.3c.898.668 1.794 0 1.438-1.126l-1.173-6.613s0-.46.264-.655l4.497-4.44c.897-.942.897-1.886-.448-1.886v.093z"/></g></g><defs><clipPath id="b"><path fill="#fff" d="M15.2 13.2h27.6v27.6H15.2z"/></clipPath><filter id="a" width="59" height="58" x="0" y="0" color-interpolation-filters="sRGB" filterUnits="userSpaceOnUse"><feFlood flood-opacity="0" result="BackgroundImageFix"/><feColorMatrix in="SourceAlpha" result="hardAlpha" values="0 0 0 0 0 0 0 0 0 0 0 0 0 0 0 0 0 0 127 0"/><feOffset dy="2"/><feGaussianBlur stdDeviation="3"/><feComposite in2="hardAlpha" operator="out"/><feColorMatrix values="0 0 0 0 0.396078 0 0 0 0 0.431373 0 0 0 0 0.482353 0 0 0 0.12 0"/><feBlend in2="BackgroundImageFix" result="effect1_dropShadow_1_14248"/><feBlend in="SourceGraphic" in2="effect1_dropShadow_1_14248" result="shape"/></filter></defs></svg>